<svg width="448" height="485" viewBox="0 0 448 485" fill="none" xmlns="http://www.w3.org/2000/svg">
<g opacity="0.15">
<path d="M273.93 4.66636L17.9209 114.071C11.8891 116.649 9.08994 123.629 11.667 129.659L150.006 453.374C154.233 463.267 163.915 469.58 174.671 469.459C185.426 469.336 194.964 462.811 198.969 452.827C200.728 448.442 204.091 445.003 208.436 443.146C212.782 441.289 217.59 441.236 221.975 442.995C235.545 448.439 250.063 447.856 262.552 442.519C275.04 437.183 285.496 427.093 290.94 413.524C293.382 407.437 290.427 400.522 284.339 398.078C278.253 395.637 271.338 398.592 268.893 404.679C262.883 419.66 245.802 426.96 230.82 420.949C209.611 412.441 185.432 422.772 176.923 443.984C176.468 445.114 175.619 445.694 174.404 445.707C173.185 445.721 172.326 445.16 171.847 444.04L74.9833 217.377L309.15 117.306L406.014 343.97C406.492 345.089 406.304 346.099 405.452 346.97C404.599 347.842 403.597 348.054 402.464 347.599C381.257 339.091 357.078 349.423 348.567 370.631L343.614 382.977C341.172 389.065 344.127 395.98 350.215 398.423C356.301 400.864 363.216 397.909 365.66 391.823L370.614 379.476C372.373 375.092 375.736 371.653 380.081 369.796C384.426 367.939 389.234 367.886 393.62 369.645C403.604 373.651 414.916 371.269 422.434 363.578C429.954 355.888 432.082 344.527 427.856 334.637L289.517 10.9208C286.941 4.88987 279.962 2.08869 273.93 4.66636ZM65.6497 195.534L38.1767 131.246L272.343 31.1761L299.816 95.4635L65.6497 195.534Z" fill="white"/>
<path d="M313.073 218.094L252.637 243.921C246.605 246.499 239.626 243.697 237.049 237.667C234.472 231.637 237.271 224.657 243.303 222.079L303.739 196.252C309.771 193.674 316.75 196.475 319.327 202.506C321.904 208.536 319.105 215.516 313.073 218.094Z" fill="white"/>
<path d="M338.743 278.16L278.306 303.988C272.274 306.566 265.295 303.764 262.718 297.734C260.141 291.704 262.94 284.724 268.972 282.146L329.409 256.319C335.441 253.741 342.42 256.542 344.997 262.573C347.574 268.603 344.775 275.583 338.743 278.16Z" fill="white"/>
<path d="M215.155 277.96C209.934 276.895 201.944 277.043 190.789 278.418L179.032 250.907C182.529 250.359 185.641 251.057 188.447 252.996C190.702 254.592 192.631 256.837 194.177 259.668C195.205 261.546 197.491 262.337 199.459 261.496L211.855 256.199C212.887 255.758 213.696 254.92 214.1 253.873C214.504 252.827 214.469 251.663 214.001 250.643C209.914 241.728 203.685 235.606 195.486 232.447C188.425 229.729 180.217 229.651 171.042 232.209L168.524 226.317C167.622 224.206 165.18 223.226 163.069 224.129L156.29 227.026C154.179 227.928 153.199 230.37 154.101 232.481L156.604 238.337C148.126 242.923 142.402 249.297 139.562 257.327C136.392 266.311 136.565 275.028 140.072 283.235C144.002 292.43 150.034 298.518 157.974 301.321C164.747 303.767 173.449 304.046 183.877 302.16L197.263 333.483C192.347 334.337 188.357 333.515 185.15 331.003C183.445 329.662 180.663 326.579 177.093 319.512C176.104 317.554 173.767 316.702 171.75 317.564L159.233 322.913C157.122 323.816 156.142 326.258 157.044 328.369C160.885 337.358 165.33 343.703 170.614 347.753C179.735 354.817 191.385 356.325 205.284 352.252L209.136 361.265C210.038 363.376 212.48 364.356 214.591 363.454L221.37 360.557C223.481 359.655 224.461 357.212 223.559 355.101L219.65 345.954C226.689 341.601 231.857 337.024 235.048 332.309C241.856 322.188 242.249 310.007 236.227 296.129C231.922 286.056 224.834 279.943 215.155 277.96ZM160.164 273.685C158.853 270.617 158.666 267.232 159.584 263.356C160.169 260.958 161.826 258.792 164.53 256.886L174.882 281.109C171.96 281.294 169.331 281.043 167.039 280.36C163.878 279.385 161.694 277.265 160.164 273.685ZM199.907 299.755C204.01 299.475 206.443 299.708 207.85 300.012C212.258 300.963 215.249 303.602 217.263 308.315C218.585 311.408 219.082 314.336 218.782 317.278C218.361 321.521 216.101 325.001 211.907 327.834L199.908 299.756L199.907 299.756L199.907 299.755Z" fill="white"/>
</g>
</svg>
